<svg xmlns="http://www.w3.org/2000/svg" viewBox="0 0 426.13 150.52"><title>VincentSign</title><g id="VincentSign" data-name="VincentSign"><g id="Layer_1-2" data-name="Layer 1"><path d="M105.61,26.36c3.76,7,.33,11.71-3.87,14.9a40.26,40.26,0,0,1-15.31,7.5c-11.66,2.49-7.86,12.37-9,18.78-4.77,26-16.6,46.85-39.52,60.79-5.53,3.36-11.49,8.69-17.66,3.31C10.87,123.49-1.32,117.37,2,100.39,6.35,78.25,7.28,55.56,7.52,32.92c.08-7.69-5.68-13-7.19-20C-.46,9.2.09,6.27,2.89,4.16,6,1.83,9.66.34,13.44,2.67,21.1,7.39,24.73,14.1,21.83,23c-4,12.33-2.93,25.06-3.57,37.66-.69,13.81-1.83,27.64-1.75,41.45s16.1,24.43,27.82,17.71c8.8-5,14.22-14.55,18.4-23.91C68.51,83,72,69.38,71.91,55c0-2-1-3.39-2.77-3.71C49.4,47.81,39.52,25.67,41,9.12c.32-3.49.45-9.16,4.22-8.84C52.84.92,61.6-2.9,67.75,6c6.8,9.89,9.4,20.64,10.15,32.22.19,2.83,2.42,2.77,4.5,2.6C92.25,40.08,99.45,34.82,105.61,26.36ZM52.53,11.23c.9,9.88,5.68,16.69,12.7,22.05,1.64,1.25,3.72.62,3.26-1.86C67,23.23,64.1,15.54,58,9.54c-.83-.83-2.84-1-4.09-.69C53.15,9.06,52.77,10.79,52.53,11.23Z"/><path d="M168.21,92.63c6,.1,11.82-2.75,17.73-.95,13.67,4.14,12.63,15.43,12.76,26.26.06,4.34.17,8.86,1.39,13,2.14,7.22,6.44,4.11,10.33,1.37.93-.65,1.8-1.36,3.78-2.86-2.16,10.22-9.49,13.85-16.43,15.58-7.24,1.81-10.17-5.1-11.8-11-2.43-8.78-2.38-17.9-2.75-27-.2-4.68-1.88-8.81-7.59-9.2-7.1-.49-8.16,4.72-8.89,9.89a44.11,44.11,0,0,0-.31,9.4c.38,4.89-.47,10.14-5.82,10-5-.16-4.14-6.54-4.1-9.87.1-8-2.2-15.74-1.42-23.88.42-4.44-3.92-4.82-7.74-2.63-2.09,1.2-3.75,4.75-6.72,2.5-2.17-1.64-4.21-3.86-3.48-7.29.91-4.24,4-6.26,7.67-7C155.62,76.86,164.48,82.08,168.21,92.63Z"/><path d="M357.67,113c-12.93,11.12-12.27,26.2-19.77,37.56-8.9.17-11.11-3-8.43-15.34a115.79,115.79,0,0,0,2.4-21.9c.12-5-3.83-6.27-7.64-6.84-4.36-.64-9.35.68-12.14-4-.49-.82.51-3.26,1.52-4.09,4.54-3.72,9.72-2.63,14.68-1.09,8,2.48,16.84,3.5,21.67,12.05,1.32,2.33,3.87.09,5.86,0,10.7-.74,15.12,5.68,11.36,16.28-2.11,5.95-4.33,12,3,16.38a2.52,2.52,0,0,1,.45,2.16c-1.24.83-2.74,2-4,1.87-2.84-.3-5.75-.66-7.26-4-2.93-6.52-1.94-13.12-1.22-19.8C358.35,120,357.94,117.85,357.67,113Z"/><path d="M280.12,108.74c-4,13,8.43,18.75,25.28,15.35,3.66-.74,7.2.52,8.42,3.78,1.43,3.79,0,7.63-4,9.62-16,8-43.94-2.2-41.91-24.23,1.33-14.4,12.51-31,23.62-30.41,6.07.32,10,4.27,12,9.72,1.91,5.14,3.73,10.62.3,15.75-.83,1.24-3.59,1.72-5.4,1.62-2.6-.15-3.2-2.78-4-4.82a17.21,17.21,0,0,1-.64-3.74c-.34-2.75-1.07-5.41-4-6.32s-3.44,2.1-4.83,3.63C282.39,101.61,279.16,104.27,280.12,108.74Z"/><path d="M393.62,108.88c7.24,14,11.56,30.33,32.51,25.39-1.17,7.4-15.42,10.67-22.4,6.8-9-4.95-11.47-14.17-15.85-22.28-6.28-11.6-5.17-23.75-3.53-36,.24-1.75-.18-4.32,2.58-4.34s3.41,2.13,3.48,4.43c.1,3.35.07,6.71.18,10.07.28,7.9,6.31,7.8,11.76,8.23a95,95,0,0,0,14.2.45c4.8-.35,5.17,3.43,5.17,5.88,0,3.79-3.07,1.24-4.81,1.15C409.28,108.26,401.6,106.64,393.62,108.88Z"/><path d="M251.56,128.14c.32,0,.64,0,1,0,3.89.51,8.56-1.44,11.25,2.9.87,1.42.55,4-1.36,4.74-4.5,1.83-9.41,2.94-13.86.44-9.28-5.21-21.13-6.17-27.19-16.81-4.72-8.28-3.62-16.75-1.11-25,2.64-8.7,10-12.18,18.36-13a8,8,0,0,1,8.09,5.11c1,2.86,2.41,6.79-.5,9.1-2.63,2.1-5.4,4.91-10,1.74s-6.55.75-7.51,5C224.55,120.81,238,126.33,251.56,128.14Z"/><path d="M117.13,118.33c-1.86-10.54,3.88-23.43-.68-36.3-.87-2.47-.12-6.59,3.24-7.88a7.33,7.33,0,0,1,8,1.62c2.55,2.69,1.65,5.89.26,8.82-5,10.46-5.55,21.59-5.08,32.86a3,3,0,0,0,1.64,2.29c2.09.47,6.57-1.88,5.55,2-.95,3.64-4.74,7.88-9.35,7.64-3.82-.2-4.06-4.19-3.56-7.56C117.18,121.43,117.13,121,117.13,118.33Z"/><path d="M118.14,41.15c.1-3.54,1.81-5.59,4.51-6.61,5.52-2.09,10.62,1,17,.54C133.67,45.24,125.91,42.42,118.14,41.15Z"/></g></g></svg>